<svg xmlns="http://www.w3.org/2000/svg" fill="none" viewBox="0 0 640 480"><defs><linearGradient id="a" x1="0" x2="0" y1="0" y2="1"><stop offset="0" stop-color="#efe4d0"/><stop offset="1" stop-color="#e3d3b5"/></linearGradient><linearGradient id="b" x1="0" x2="0" y1="0" y2="1"><stop offset="0" stop-color="#c9a45c"/><stop offset="1" stop-color="#a67f38"/></linearGradient><linearGradient id="c" x1="0" x2="1" y1="0" y2="0"><stop offset="0" stop-color="#fffdf9"/><stop offset="1" stop-color="#eaf2f1"/></linearGradient><linearGradient id="d" x1="0" x2="0" y1="0" y2="1"><stop offset="0" stop-color="#edb59b"/><stop offset="1" stop-color="#e39b7b"/></linearGradient><linearGradient id="e" x1="0" x2="0" y1="0" y2="1"><stop offset="0" stop-color="#9dbea6"/><stop offset="1" stop-color="#5e8c6a"/></linearGradient><linearGradient id="f" x1="0" x2="0" y1="0" y2="1"><stop offset="0" stop-color="#f4e3b8"/><stop offset="1" stop-color="#d9be8c"/></linearGradient></defs><circle cx="320" cy="222" r="176" fill="#f7f0e3"/><circle cx="150" cy="118" r="46" fill="#f4e3b8" opacity=".8"/><path fill="#d9be8c" d="M538 128q1.6 8.4 10 10-8.4 1.6-10 10-1.6-8.4-10-10 8.4-1.6 10-10M96 248q1.1 5.9 7 7-5.9 1.1-7 7-1.1-5.9-7-7 5.9-1.1 7-7M470 56q.9 5.1 6 6-5.1.9-6 6-.9-5.1-6-6 5.1-.9 6-6"/><path fill="url(#a)" d="M70 398c6-34 106-48 252-48 150 0 240 12 246 42s-98 44-246 44-258-10-252-38"/><ellipse cx="320" cy="384" fill="#3a3024" opacity=".1" rx="198" ry="9"/><path fill="url(#b)" d="M124 346a12 12 0 0 1 12-12h368a12 12 0 0 1 12 12v18a14 14 0 0 1-14 14H138a14 14 0 0 1-14-14z"/><rect width="380" height="18" x="130" y="332" fill="#d9be8c" rx="9"/><path stroke="#fffdf9" stroke-linecap="round" stroke-width="2" d="M142 338h356" opacity=".5"/><rect width="30" height="8" x="146" y="358" fill="#7a5a2b" opacity=".6" rx="4"/><rect width="30" height="8" x="464" y="358" fill="#7a5a2b" opacity=".6" rx="4"/><circle cx="200" cy="150" r="7" fill="#fffdf9" stroke="#e39b7b" stroke-width="2.5"/><circle cx="220" cy="122" r="5" fill="#fffdf9" stroke="#e39b7b" stroke-width="2"/><circle cx="202" cy="98" r="3.5" fill="#e39b7b" opacity=".6"/><circle cx="314" cy="108" r="9" fill="#fffdf9" stroke="#5e8c6a" stroke-width="2.5"/><circle cx="334" cy="76" r="6" fill="#fffdf9" stroke="#5e8c6a" stroke-width="2"/><circle cx="312" cy="50" r="4" fill="#9dbea6"/><circle cx="442" cy="118" r="6" fill="#fffdf9" stroke="#c9a45c" stroke-width="2"/><circle cx="430" cy="92" r="4" fill="#d9be8c"/><g transform="translate(-12)"><ellipse cx="220" cy="347" fill="#7a5a2b" opacity=".2" rx="30" ry="4"/><path fill="url(#c)" d="M205 180v54a58 58 0 1 0 30 0v-54z" opacity=".9"/><path fill="url(#d)" d="M166 290a54 54 0 0 0 108 0c-18-6-36 6-54 0s-36-6-54 0"/><circle cx="200" cy="316" r="4" fill="#fffdf9" opacity=".6"/><circle cx="236" cy="304" r="3" fill="#fffdf9" opacity=".6"/><path stroke="#a9cbcf" stroke-linejoin="round" stroke-width="2.5" d="M205 180v54a58 58 0 1 0 30 0v-54"/><rect width="44" height="12" x="198" y="170" fill="#eaf2f1" stroke="#a9cbcf" stroke-width="2.5" rx="6"/><path stroke="#fffdf9" stroke-linecap="round" stroke-width="4" d="M178 268a46 46 0 0 1 18-26"/></g><ellipse cx="320" cy="347" fill="#7a5a2b" opacity=".2" rx="62" ry="4"/><path fill="url(#c)" d="M303 142v58l-47 124q-6 22 16 22h96q22 0 16-22l-47-124v-58z" opacity=".9"/><path fill="url(#e)" d="m284 262-23 62q-5 18 13 18h92q18 0 13-18l-23-62c-12-6-24 6-36 0s-24-6-36 0"/><circle cx="300" cy="306" r="5" fill="#fffdf9" opacity=".6"/><circle cx="334" cy="290" r="3.5" fill="#fffdf9" opacity=".6"/><circle cx="322" cy="322" r="3" fill="#fffdf9" opacity=".6"/><path stroke="#a9cbcf" stroke-linejoin="round" stroke-width="2.5" d="M303 142v58l-47 124q-6 22 16 22h96q22 0 16-22l-47-124v-58"/><rect width="48" height="12" x="296" y="132" fill="#eaf2f1" stroke="#a9cbcf" stroke-width="2.5" rx="6"/><path stroke="#fffdf9" stroke-linecap="round" stroke-width="4" d="M310 160v36l-26 70"/><g transform="translate(12)"><ellipse cx="424" cy="347" fill="#7a5a2b" opacity=".2" rx="24" ry="4"/><path fill="url(#c)" d="M414 150v109a44 44 0 1 0 20 0V150z" opacity=".9"/><path fill="url(#f)" d="M386 290a40 40 0 1 0 76 0c-13-6-25 6-38 0s-25-6-38 0"/><circle cx="410" cy="318" r="3.5" fill="#fffdf9" opacity=".7"/><path stroke="#a9cbcf" stroke-linejoin="round" stroke-width="2.5" d="M414 150v109a44 44 0 1 0 20 0V150"/><rect width="32" height="10" x="408" y="142" fill="#eaf2f1" stroke="#a9cbcf" stroke-width="2.5" rx="5"/><path stroke="#fffdf9" stroke-linecap="round" stroke-width="3.5" d="M419 166v74m-27 50a34 34 0 0 1 12-20"/></g><g transform="rotate(-8 -393.5 1535.3)scale(1.3)"><ellipse cx="470" cy="414" fill="#3a3024" opacity=".1" rx="52" ry="4"/><rect width="76" height="9" x="430" y="401" fill="#eaf2f1" stroke="#a9cbcf" stroke-width="2" rx="4.5"/><rect width="30" height="5" x="433" y="403" fill="#9dbea6" rx="2.5"/><path stroke="#a9cbcf" stroke-linecap="round" stroke-width="3" d="M430 405.5h-10"/><path fill="url(#d)" d="M504 398h10a10 10 0 0 1 0 15h-10z"/></g></svg>