<svg xmlns="http://www.w3.org/2000/svg" fill="none" viewBox="0 0 800 600"><defs><linearGradient id="b" x1="0" x2="0" y1="0" y2="1"><stop offset="0" stop-color="#cfe3e4"/><stop offset="1" stop-color="#a9cbcf"/></linearGradient><linearGradient id="c" x1="0" x2="0" y1="0" y2="1"><stop offset="0" stop-color="#efe4d0"/><stop offset="1" stop-color="#e3d3b5"/></linearGradient><linearGradient id="d" x1="0" x2=".6" y1="0" y2="1"><stop offset="0" stop-color="#6e9a78"/><stop offset="1" stop-color="#3f6b4e"/></linearGradient><linearGradient id="f" x1="0" x2="1" y1="0" y2=".4"><stop offset="0" stop-color="#f7f0e3"/><stop offset="1" stop-color="#e3d3b5"/></linearGradient><linearGradient id="e" x1="0" x2="1" y1="0" y2=".3"><stop offset="0" stop-color="#efe4d0"/><stop offset="1" stop-color="#d9be8c"/></linearGradient><linearGradient id="g" x1="0" x2=".7" y1="0" y2="1"><stop offset="0" stop-color="#fffdf9"/><stop offset="1" stop-color="#efe4d0"/></linearGradient><linearGradient id="h" x1="0" x2="1" y1="0" y2="1"><stop offset="0" stop-color="#e6c77f"/><stop offset="1" stop-color="#a67f38"/></linearGradient><linearGradient id="i" x1="0" x2="1" y1="0" y2="0"><stop offset="0" stop-color="#d4b06a"/><stop offset="1" stop-color="#9a7433"/></linearGradient><radialGradient id="a" cx=".5" cy=".5" r=".5"><stop offset="0" stop-color="#f4e3b8"/><stop offset=".6" stop-color="#f4e3b8" stop-opacity=".6"/><stop offset="1" stop-color="#f4e3b8" stop-opacity="0"/></radialGradient></defs><circle cx="400" cy="300" r="236" fill="#f7f0e3"/><circle cx="400" cy="262" r="210" fill="url(#a)"/><ellipse cx="400" cy="486" fill="url(#b)" rx="310" ry="52"/><path stroke="#fff" stroke-linecap="round" stroke-width="2" d="M144 486q14-6 28 0m454-6q14-6 28 0m-94 36q12-5 24 0m-368-2q12-5 24 0" opacity=".9"/><path stroke="#fff" stroke-linecap="round" stroke-width="2.5" d="M190 490c40 24 380 24 420 0" opacity=".7"/><path fill="url(#c)" d="M196 480c14-36 104-48 204-48 104 0 192 12 204 48-44 24-364 24-408 0"/><path fill="url(#d)" d="M222 464c18-30 98-42 178-42 86 0 162 12 178 42-42 16-312 16-356 0"/><path fill="#9dbea6" d="M252 450c28-16 78-22 120-22-42 6-82 14-104 26Z" opacity=".6"/><ellipse cx="262" cy="454" fill="#5e8c6a" rx="22" ry="13"/><ellipse cx="246" cy="459" fill="#3f6b4e" rx="14" ry="8"/><ellipse cx="256" cy="447" fill="#9dbea6" opacity=".7" rx="10" ry="5"/><ellipse cx="540" cy="454" fill="#5e8c6a" rx="20" ry="12"/><ellipse cx="557" cy="459" fill="#3f6b4e" rx="13" ry="7"/><g transform="translate(-64 -70.7)scale(1.16)"><ellipse cx="400" cy="446" fill="#3a3024" opacity=".1" rx="112" ry="10"/><rect width="192" height="28" x="304" y="414" fill="url(#e)" rx="12"/><path fill="url(#f)" d="M328 366h144v52H328z"/><path stroke="#e3d3b5" stroke-linecap="round" stroke-width="2" d="M358 372v40m42-40v40m42-40v40"/><rect width="180" height="24" x="310" y="346" fill="url(#e)" rx="10"/><rect width="168" height="4" x="316" y="364" fill="#c9a45c" rx="2"/></g><path fill="url(#g)" stroke="#e3d3b5" stroke-width="2" d="M300 330c-4-24 18-36 46-33 34 4 74 4 108 0 28-3 50 9 46 33 4 20-18 30-46 27-34-4-74-4-108 0-28 3-50-7-46-27Z" transform="translate(-64 -70.7)scale(1.16)"/><path stroke="#fff" stroke-linecap="round" stroke-width="3.5" d="M309.5 288.9c14-8.1 32.5-9.3 48.7-8.1" opacity=".9"/><g transform="translate(-64 -61.4)scale(1.16)"><path fill="url(#h)" stroke="url(#h)" stroke-linejoin="round" stroke-width="8" d="m340 290-10-68 40 30 30-48 30 48 40-30-10 68Z"/><path fill="#f4e3b8" d="m338 270-4-38 30 24-12 14Zm46-20 16-34-2 34Z" opacity=".5"/><path fill="url(#i)" d="M334 282q66 12 132 0v24q-66 14-132 0Z"/><path stroke="#f4e3b8" stroke-linecap="round" stroke-width="2" d="M340 288q60 11 120 0" opacity=".8"/><ellipse cx="400" cy="300" fill="#e39b7b" rx="11" ry="9"/><ellipse cx="397" cy="297" fill="#fff" opacity=".7" rx="4" ry="3"/><circle cx="362" cy="297" r="6" fill="#9dbea6"/><circle cx="438" cy="297" r="6" fill="#9dbea6"/><path fill="#e39b7b" d="m400 246 8 13-8 13-8-13Z"/><path fill="#fff" d="m400 250 4 9h-4Z" opacity=".6"/><circle cx="330" cy="220" r="9" fill="#fffdf9" stroke="#d9be8c" stroke-width="2"/><circle cx="400" cy="200" r="10" fill="#fffdf9" stroke="#d9be8c" stroke-width="2"/><circle cx="470" cy="220" r="9" fill="#fffdf9" stroke="#d9be8c" stroke-width="2"/></g><g transform="translate(-64 -70.7)scale(1.16)"><path fill="url(#g)" d="M300 330c18-8 36-12 50-12 32 5 68 5 100 0 14 0 32 4 50 12 4 20-18 30-46 27-34-4-74-4-108 0-28 3-50-7-46-27"/><path stroke="#d9be8c" stroke-linecap="round" stroke-width="2" d="M302 330c16-8 34-12 48-12 32 5 68 5 100 0 14 0 32 4 48 12"/><path stroke="#e3d3b5" stroke-width="2" d="M300 330c-4 20 18 30 46 27 34-4 74-4 108 0 28 3 50-7 46-27"/><circle cx="299" cy="330" r="5" fill="#c9a45c"/><path fill="url(#h)" d="M295 333h8l2 20h-12Z"/><circle cx="501" cy="330" r="5" fill="#c9a45c"/><path fill="url(#h)" d="M497 333h8l2 20h-12Z"/></g><path fill="#fff" d="m404.6 147.4 2.4 7 7 2.2-7 2.4-2.4 7-2.3-7-7-2.4 7-2.3z"/><path fill="#c9a45c" d="m252 196 5 14 14 5-14 5-5 14-5-14-14-5 14-5zm308-20 4 11 11 4-11 4-4 11-4-11-11-4 11-4z"/><g fill="#d9be8c"><path d="m546 276 3 8 8 3-8 3-3 8-3-8-8-3 8-3zM296 136l2.5 7 7 2.5-7 2.5-2.5 7-2.5-7-7-2.5 7-2.5zm204-10 2.5 7 7 2.5-7 2.5-2.5 7-2.5-7-7-2.5 7-2.5z"/><circle cx="236" cy="296" r="4"/><circle cx="586" cy="236" r="3.5"/></g></svg>