<svg xmlns="http://www.w3.org/2000/svg" fill="none" viewBox="0 0 640 480"><defs><linearGradient id="b" x1="0" x2="0" y1="0" y2="1"><stop offset="0" stop-color="#efe4d0"/><stop offset="1" stop-color="#e3d3b5"/></linearGradient><linearGradient id="c" x1="0" x2="0" y1="0" y2="1"><stop offset="0" stop-color="#e3d3b5"/><stop offset="1" stop-color="#d9be8c"/></linearGradient><linearGradient id="d" x1="0" x2="1" y1="0" y2="1"><stop offset="0" stop-color="#d9be8c"/><stop offset="1" stop-color="#c9a45c"/></linearGradient><linearGradient id="f" x1="0" x2="1" y1="0" y2="1"><stop offset="0" stop-color="#9dbea6"/><stop offset="1" stop-color="#5e8c6a"/></linearGradient><linearGradient id="e" x1="0" x2="1" y1="0" y2="1"><stop offset="0" stop-color="#c9a45c"/><stop offset="1" stop-color="#a67f38"/></linearGradient><linearGradient id="g" x1="0" x2="0" y1="0" y2="1"><stop offset="0" stop-color="#f4e3b8"/><stop offset="1" stop-color="#d9be8c"/></linearGradient><radialGradient id="a" cx="0" cy="0" r="1" gradientTransform="matrix(96 0 0 96 478 116)" gradientUnits="userSpaceOnUse"><stop offset="0" stop-color="#f4e3b8"/><stop offset="1" stop-color="#f4e3b8" stop-opacity="0"/></radialGradient></defs><circle cx="316" cy="232" r="178" fill="#f7f0e3"/><circle cx="478" cy="116" r="96" fill="url(#a)"/><path fill="#d9be8c" d="M112 132q1.3 6.7 8 8-6.7 1.3-8 8-1.3-6.7-8-8 6.7-1.3 8-8m440 64q1 5 6 6-5 1-6 6-1-5-6-6 5-1 6-6M404 60q1 5 6 6-5 1-6 6-1-5-6-6 5-1 6-6"/><path fill="url(#b)" d="M96 396c0-22 100-34 224-34s224 12 224 32-102 28-224 28-224-8-224-26"/><ellipse cx="300" cy="392" fill="#3a3024" opacity=".1" rx="168" ry="9"/><rect width="62" height="42" x="140" y="350" fill="url(#c)" rx="6"/><rect width="62" height="82" x="200" y="310" fill="url(#c)" rx="6"/><rect width="62" height="122" x="260" y="270" fill="url(#c)" rx="6"/><rect width="62" height="162" x="320" y="230" fill="url(#c)" rx="6"/><rect width="62" height="202" x="380" y="190" fill="url(#c)" rx="6"/><path stroke="#c9a45c" stroke-linecap="round" stroke-width="2" d="M200 316v70m60-110v110m60-150v150m60-190v190" opacity=".5"/><g fill="#f7f0e3"><rect width="66" height="10" x="138" y="346" rx="5"/><rect width="66" height="10" x="198" y="306" rx="5"/><rect width="66" height="10" x="258" y="266" rx="5"/><rect width="66" height="10" x="318" y="226" rx="5"/><rect width="66" height="10" x="378" y="186" rx="5"/></g><circle cx="171" cy="372" r="6" fill="#c9a45c"/><circle cx="231" cy="332" r="6" fill="#c9a45c"/><circle cx="291" cy="292" r="6" fill="#c9a45c"/><circle cx="351" cy="252" r="6" fill="#efe4d0"/><circle cx="411" cy="212" r="6" fill="#efe4d0"/><path fill="url(#d)" stroke="url(#d)" stroke-linejoin="round" stroke-width="8" d="m478 82 9.4 23.1 24.8 1.8-19 16 6 24.2L478 134l-21.2 13.1 6-24.2-19-16 24.8-1.8Z"/><path stroke="#fff" stroke-linecap="round" stroke-width="3" d="m466 108 8-18" opacity=".7"/><path fill="#c9a45c" d="M532 84q1.3 6.7 8 8-6.7 1.3-8 8-1.3-6.7-8-8 6.7-1.3 8-8m-102 66q1 5 6 6-5 1-6 6-1-5-6-6 5-1 6-6"/><path stroke="#3f6b4e" stroke-linecap="round" stroke-width="14" d="m304 216-12 44"/><path stroke="#3f6b4e" stroke-linecap="round" stroke-linejoin="round" stroke-width="14" d="m314 214 24-12 4 14"/><ellipse cx="294" cy="262" fill="#3a3024" rx="12" ry="5.5"/><ellipse cx="348" cy="222" fill="#3a3024" rx="12" ry="5.5"/><path stroke="#5e8c6a" stroke-linecap="round" stroke-width="11" d="m304 168-18 32"/><circle cx="285" cy="202" r="6.5" fill="#c99a74"/><rect width="22" height="42" x="280" y="158" fill="url(#e)" rx="9" transform="rotate(14 291 179)"/><rect width="36" height="70" x="294" y="152" fill="url(#f)" rx="16" transform="rotate(14 312 187)"/><circle cx="330" cy="134" r="20" fill="#c99a74"/><path fill="#3a3024" d="M311 134c-3-16 6-28 20-28 13 0 22 8 21 20-9-6-22-7-32-2-4 2-7 6-9 10"/><circle cx="336" cy="134" r="2.8" fill="#3a3024"/><circle cx="345" cy="132" r="2.8" fill="#3a3024"/><path stroke="#3a3024" stroke-linecap="round" stroke-width="2" d="M338 142q4 3 8-1"/><path stroke="#9dbea6" stroke-linecap="round" stroke-width="11" d="m328 168 56-44"/><circle cx="387" cy="121" r="6.5" fill="#c99a74"/><path fill="#5e8c6a" d="M492 392c-8-12-6-28 4-38 4 14 3 26-4 38"/><path fill="#9dbea6" d="M496 393c2-14 12-24 26-26-4 12-12 21-26 26"/><path fill="#3f6b4e" d="M489 393c-10-6-16-16-16-28 10 6 16 16 16 28"/><ellipse cx="134" cy="398" fill="#d9be8c" rx="8" ry="4"/><circle cx="172" cy="244" r="42" fill="#f4e3b8" opacity=".6"/><path fill="#e39b7b" d="M172 204c18 18 28 32 26 48s-12 24-26 24-24-8-26-22 8-22 14-32c2 10 6 14 10 16-2-12-4-24 2-34"/><path fill="url(#g)" d="M172 234c10 10 14 18 12 26q-3 12-12 12c-6 0-12-4-12-12s6-14 12-26"/><circle cx="198" cy="210" r="3" fill="#e39b7b"/><circle cx="150" cy="214" r="2.2" fill="#e39b7b" opacity=".7"/></svg>