<svg xmlns="http://www.w3.org/2000/svg" fill="none" viewBox="0 0 640 480"><defs><linearGradient id="a" x1="0" x2="0" y1="0" y2="1"><stop offset="0" stop-color="#efe4d0"/><stop offset="1" stop-color="#e3d3b5"/></linearGradient><linearGradient id="g" x1="0" x2="1" y1="0" y2="1"><stop offset="0" stop-color="#fffdf9"/><stop offset="1" stop-color="#cfe3e4"/></linearGradient><linearGradient id="h" x1="0" x2="0" y1="0" y2="1"><stop offset="0" stop-color="#9dbea6"/><stop offset="1" stop-color="#5e8c6a"/></linearGradient><linearGradient id="f" x1="0" x2="1" y1="0" y2="1"><stop offset="0" stop-color="#d9be8c"/><stop offset="1" stop-color="#a67f38"/></linearGradient><linearGradient id="b" x1="0" x2="1" y1="0" y2="1"><stop offset="0" stop-color="#edb59b"/><stop offset="1" stop-color="#e39b7b"/></linearGradient><linearGradient id="c" x1="0" x2="1" y1="0" y2="1"><stop offset="0" stop-color="#9dbea6"/><stop offset="1" stop-color="#5e8c6a"/></linearGradient><linearGradient id="e" x1="0" x2="1" y1="0" y2="1"><stop offset="0" stop-color="#5e8c6a"/><stop offset="1" stop-color="#3f6b4e"/></linearGradient><linearGradient id="d" x1="0" x2="1" y1="0" y2="1"><stop offset="0" stop-color="#fffdf9"/><stop offset="1" stop-color="#efe4d0"/></linearGradient></defs><circle cx="316" cy="206" r="176" fill="#f7f0e3"/><circle cx="544" cy="98" r="40" fill="#f4e3b8" opacity=".8"/><path fill="#d9be8c" d="M78 150q1.6 8.4 10 10-8.4 1.6-10 10-1.6-8.4-10-10 8.4-1.6 10-10m504 82q1.1 5.9 7 7-5.9 1.1-7 7-1.1-5.9-7-7 5.9-1.1 7-7M330 40q.9 5.1 6 6-5.1.9-6 6-.9-5.1-6-6 5.1-.9 6-6"/><path fill="url(#a)" d="M70 400c6-34 110-48 252-48 150 0 244 12 250 42s-100 44-250 44-258-10-252-38"/><g stroke-linejoin="round" stroke-width="6"><path fill="#e39b7b" stroke="#e39b7b" d="M127 95h19v19h-19zm0 30h19v19h-19zm0 30h19v19h-19zm0 30h19v19h-19z" opacity=".7"/><path fill="#d9be8c" stroke="#d9be8c" d="M157 125h19v19h-19zm0 30h19v19h-19zm0 30h19v19h-19z" opacity=".8"/><path fill="#e3d3b5" stroke="#e3d3b5" d="M187 155h19v19h-19zm30 0h19v19h-19zm30 0h19v19h-19zm30 0h19v19h-19zm-90 30h19v19h-19zm30 0h19v19h-19zm30 0h19v19h-19zm30 0h19v19h-19z" opacity=".8"/><path fill="#9dbea6" stroke="#9dbea6" d="M307 125h19v19h-19zm30 0h19v19h-19zm-30 30h19v19h-19zm30 0h19v19h-19zm-30 30h19v19h-19zm30 0h19v19h-19z" opacity=".8"/><path fill="#c9a45c" stroke="#c9a45c" d="M367 95h19v19h-19zm0 30h19v19h-19zm0 30h19v19h-19zm0 30h19v19h-19z" opacity=".8"/></g><ellipse cx="180" cy="392" fill="#3a3024" opacity=".1" rx="72" ry="6"/><path stroke="#d9be8c" stroke-linecap="round" stroke-width="9" d="m176 294-64-38m64 38-34 62m34-62 56 50"/><path stroke="#d9be8c" stroke-linecap="round" stroke-width="7" d="m182 282 60-24m-56 38 64-26"/><path stroke="#f4e3b8" stroke-linecap="round" stroke-width="3" d="m176 294-64-38m64 38-34 62m34-62 56 50"/><circle cx="112" cy="256" r="17" fill="url(#b)"/><circle cx="248" cy="258" r="19" fill="url(#c)"/><circle cx="142" cy="356" r="15" fill="url(#d)" stroke="#e3d3b5" stroke-width="2"/><circle cx="232" cy="344" r="14" fill="url(#e)"/><circle cx="176" cy="294" r="27" fill="url(#f)"/><g fill="#fffdf9" opacity=".8"><circle cx="165" cy="283" r="6"/><circle cx="106" cy="250" r="4.5"/><circle cx="241" cy="251" r="5"/><circle cx="137" cy="351" r="3.5"/><circle cx="227" cy="339" r="3.5"/></g><ellipse cx="430" cy="391" fill="#3a3024" opacity=".1" rx="92" ry="7"/><path fill="url(#g)" d="M410 154v78l-58 124c-8 16-4 32 18 32h120c22 0 26-16 18-32l-58-124v-78z" opacity=".8"/><path fill="url(#h)" d="m378 300-26 56c-8 16-4 32 18 32h120c22 0 26-16 18-32l-26-56q-26 8-52 0t-52 0"/><path stroke="#cfe3e4" stroke-linecap="round" stroke-width="2" d="M378 300q26-8 52 0t52 0" opacity=".8"/><path stroke="#a9cbcf" stroke-linejoin="round" stroke-width="3" d="M410 154v78l-58 124c-8 16-4 32 18 32h120c22 0 26-16 18-32l-58-124v-78"/><rect width="60" height="14" x="400" y="142" fill="#d9be8c" rx="7"/><path stroke="#fffdf9" stroke-linecap="round" stroke-width="5" d="m408 254-24 52m-4 10-5 11" opacity=".8"/><path stroke="#a9cbcf" stroke-linecap="round" stroke-width="2.5" d="M452 268h10m0 22h10"/><g fill="#f2fbf6" opacity=".7"><circle cx="412" cy="340" r="5"/><circle cx="448" cy="362" r="4"/><circle cx="462" cy="326" r="6"/><circle cx="430" cy="316" r="3"/></g><g stroke="#9dbea6" stroke-width="2.5"><circle cx="436" cy="118" r="6"/><circle cx="420" cy="92" r="4"/><circle cx="448" cy="68" r="8"/></g></svg>