<svg xmlns="http://www.w3.org/2000/svg" fill="none" viewBox="0 0 640 480"><defs><linearGradient id="a" x1="0" x2="0" y1="0" y2="1"><stop offset="0" stop-color="#efe4d0"/><stop offset="1" stop-color="#e3d3b5"/></linearGradient><linearGradient id="b" x1="0" x2="1" y1="0" y2="1"><stop offset="0" stop-color="#9dbea6"/><stop offset="1" stop-color="#5e8c6a"/></linearGradient><linearGradient id="g" x1="0" x2="1" y1="0" y2="1"><stop offset="0" stop-color="#6e9a78"/><stop offset="1" stop-color="#3f6b4e"/></linearGradient><linearGradient id="c" x1="0" x2="1" y1="0" y2="1"><stop offset="0" stop-color="#edb196"/><stop offset="1" stop-color="#e39b7b"/></linearGradient><linearGradient id="f" x1="0" x2="1" y1="0" y2="1"><stop offset="0" stop-color="#e3cb9d"/><stop offset="1" stop-color="#c9a45c"/></linearGradient><linearGradient id="e" x1="0" x2="0" y1="0" y2="1"><stop offset="0" stop-color="#a67f38"/><stop offset="1" stop-color="#7a5a2b"/></linearGradient><linearGradient id="i" x1="0" x2="0" y1="0" y2="1"><stop offset="0" stop-color="#e3cb9d"/><stop offset="1" stop-color="#c9a45c"/></linearGradient><linearGradient id="h" x1="0" x2="1" y1="0" y2="0"><stop offset="0" stop-color="#c9a45c"/><stop offset="1" stop-color="#a67f38"/></linearGradient><linearGradient id="k" x1="0" x2="0" y1="0" y2="1"><stop offset="0" stop-color="#9dbea6"/><stop offset="1" stop-color="#5e8c6a"/></linearGradient><linearGradient id="j" x1="0" x2="1" y1="0" y2="1"><stop offset="0" stop-color="#efe4d0"/><stop offset="1" stop-color="#d9be8c"/></linearGradient><clipPath id="d"><circle cx="322" cy="350" r="63"/></clipPath></defs><circle cx="318" cy="232" r="170" fill="#f7f0e3"/><circle cx="530" cy="112" r="38" fill="#f4e3b8"/><path fill="#d9be8c" d="M190 88q1.3 6.7 8 8-6.7 1.3-8 8-1.3-6.7-8-8 6.7-1.3 8-8m408 142q1 5 6 6-5 1-6 6-1-5-6-6 5-1 6-6M70 244q1 5 6 6-5 1-6 6-1-5-6-6 5-1 6-6"/><g transform="translate(0 -24)"><path fill="url(#a)" d="M72 396c-2-36 108-56 248-58 146-2 254 14 256 54 2 36-96 54-246 54-154 0-256-14-258-50"/><ellipse cx="334" cy="406" fill="#3a3024" opacity=".1" rx="112" ry="7"/><path stroke="#3f6b4e" stroke-linecap="round" stroke-width="3.5" d="M218 396q-20 6-30 16"/><path fill="url(#b)" d="M218 396q70-86 234-56-90 94-234 56"/><path stroke="#fffdf9" stroke-linecap="round" stroke-width="2" d="M224 394q98-30 220-52m-176 38q12-18 32-28m0 20q14-20 36-28m-2 20q16-18 34-24m-78 36q14 10 32 16m4-24q16 12 34 14m2-24q14 10 30 10m0-18q16 8 32 6m-170 30q8-14 22-22" opacity=".6"/><g transform="rotate(-14 322 366)"><circle cx="338" cy="366" r="6.5" fill="#3a3024"/><path fill="url(#c)" d="M334 366a13 11.5 0 1 1-26 0 13 11.5 0 1 1 26 0"/><path stroke="#3a3024" stroke-linecap="round" stroke-width="1.6" d="M334 366h-26"/><g fill="#3a3024"><circle cx="315" cy="360" r="2.4"/><circle cx="326" cy="359" r="2.1"/><circle cx="316" cy="372" r="2.2"/><circle cx="327" cy="373" r="2.4"/></g><path fill="#fffdf9" d="M312 358a4 2.2 0 1 0 8 0 4 2.2 0 1 0-8 0" opacity=".6"/></g><g clip-path="url(#d)"><circle cx="322" cy="350" r="63" fill="#efe4d0"/><path stroke="#3f6b4e" stroke-linecap="round" stroke-width="7" d="M110 416q-40 12-60 32"/><path fill="url(#b)" d="M218 396q70-86 234-56-90 94-234 56" transform="matrix(2 0 0 2 -326 -376)"/><path stroke="#fffdf9" stroke-linecap="round" stroke-width="4" d="M122 412q196-60 440-104m-352 76q24-36 64-56m0 40q28-40 72-56m-4 40q32-36 68-48m-156 72q28 20 64 32m8-48q32 24 68 28m4-48q28 20 60 20m0-36q32 16 64 12m-340 60q16-28 44-44" opacity=".6"/><g transform="rotate(-14 -1050.1 1871.5)scale(2)"><circle cx="338" cy="366" r="6.5" fill="#3a3024"/><path fill="url(#c)" d="M334 366a13 11.5 0 1 1-26 0 13 11.5 0 1 1 26 0"/><path stroke="#3a3024" stroke-linecap="round" stroke-width="1.6" d="M334 366h-26"/><g fill="#3a3024"><circle cx="315" cy="360" r="2.4"/><circle cx="326" cy="359" r="2.1"/><circle cx="316" cy="372" r="2.2"/><circle cx="327" cy="373" r="2.4"/></g><path fill="#fffdf9" d="M312 358a4 2.2 0 1 0 8 0 4 2.2 0 1 0-8 0" opacity=".6"/></g><circle cx="322" cy="350" r="63" fill="#cfe3e4" opacity=".1"/></g><path stroke="#fffdf9" stroke-linecap="round" stroke-width="6" d="M280 318a50 50 0 0 1 46-18m-52 38a50 50 0 0 1 2-9" opacity=".8"/><g transform="rotate(-40 641.8 -267.3)"><rect width="22" height="16" x="68" y="-8" fill="#c9a45c" rx="4"/><rect width="112" height="24" x="88" y="-12" fill="url(#e)" rx="12"/><rect width="90" height="5" x="98" y="-8" fill="#d9be8c" opacity=".6" rx="2.5"/></g><circle cx="322" cy="350" r="69" stroke="url(#f)" stroke-width="13"/><path stroke="#fffdf9" stroke-linecap="round" stroke-width="2.5" d="M262 326a63 63 0 0 1 34-36" opacity=".6"/><ellipse cx="150" cy="394" fill="#3a3024" opacity=".1" rx="50" ry="6"/><path stroke="#3f6b4e" stroke-linecap="round" stroke-width="5" d="M152 330q-4-40 4-74 6-22 2-42"/><path fill="url(#g)" d="M156 262q-36 0-52-30 36-10 52 26Z"/><path fill="url(#b)" d="M158 240q12-36 50-44-2 40-48 48Z"/><path fill="url(#b)" d="M158 216q-10-20-2-36 14 16 4 36Z"/><path stroke="#fffdf9" stroke-linecap="round" stroke-width="1.8" d="M152 258q-22-10-38-24m48 4q18-22 40-36" opacity=".5"/><path fill="url(#h)" d="M116 332h68l-6 52q-1 10-11 10h-34q-10 0-11-10Z"/><rect width="88" height="18" x="106" y="318" fill="url(#i)" rx="7"/><ellipse cx="150" cy="321" fill="#7a5a2b" rx="37" ry="5"/><path fill="url(#j)" d="M140 322q-2-12 10-14 14 0 12 12-6 6-22 2"/><path stroke="#a67f38" stroke-linecap="round" stroke-width="1.5" d="M143 318q8-4 15-2"/><path stroke="#d9be8c" stroke-linecap="round" stroke-width="4" d="M124 342v34" opacity=".6"/><ellipse cx="508" cy="394" fill="#3a3024" opacity=".1" rx="42" ry="6"/><path fill="url(#k)" d="M478 338h60v42q0 12-12 12h-36q-12 0-12-12Z"/><path fill="#9dbea6" d="M478 338a30 4 0 1 0 60 0 30 4 0 1 0-60 0" opacity=".5"/><path fill="#eaf2f1" d="M478 298h60v40h-60Z" opacity=".6"/><path stroke="#a9cbcf" stroke-linecap="round" stroke-linejoin="round" stroke-width="3.5" d="M470 296q8 0 8 8v76q0 12 12 12h36q12 0 12-12v-80"/><path stroke="#a9cbcf" stroke-linecap="round" stroke-width="3.5" d="M470 296h72"/><path stroke="#fffdf9" stroke-linecap="round" stroke-width="3" d="M486 308v68" opacity=".8"/><path stroke="#7a5a2b" stroke-linecap="round" stroke-width="1.6" d="M528 312h-8m8 14h-8m8 26h-8m8 14h-8" opacity=".6"/><g fill="#fffdf9" opacity=".8"><circle cx="498" cy="370" r="3.2"/><circle cx="514" cy="356" r="2.4"/><circle cx="506" cy="380" r="2"/></g><g fill="#9dbea6" opacity=".7"><circle cx="516" cy="280" r="4"/><circle cx="502" cy="266" r="3"/><circle cx="520" cy="252" r="2.4"/></g></g></svg>