<svg xmlns="http://www.w3.org/2000/svg" fill="none" viewBox="0 0 640 480"><defs><linearGradient id="a" x1="0" x2="0" y1="0" y2="1"><stop offset="0" stop-color="#efe4d0"/><stop offset="1" stop-color="#e3d3b5"/></linearGradient><linearGradient id="d" x1="0" x2="1" y1="0" y2="1"><stop offset="0" stop-color="#d9be8c"/><stop offset="1" stop-color="#a67f38"/></linearGradient><linearGradient id="e" x1="0" x2="1" y1="0" y2="1"><stop offset="0" stop-color="#fffdf9"/><stop offset="1" stop-color="#efe4d0"/></linearGradient><linearGradient id="c" x1="0" x2="1" y1="0" y2="1"><stop offset="0" stop-color="#c9a45c"/><stop offset="1" stop-color="#a67f38"/></linearGradient><linearGradient id="b" x1="0" x2="1" y1="0" y2="0"><stop offset="0" stop-color="#a67f38"/><stop offset="1" stop-color="#7a5a2b"/></linearGradient><linearGradient id="f" x1="0" x2="1" y1="0" y2="1"><stop offset="0" stop-color="#eaf2f1"/><stop offset="1" stop-color="#cfe3e4"/></linearGradient><linearGradient id="g" x1="0" x2="0" y1="0" y2="1"><stop offset="0" stop-color="#d9be8c"/><stop offset="1" stop-color="#c9a45c"/></linearGradient></defs><circle cx="320" cy="226" r="176" fill="#f7f0e3"/><circle cx="492" cy="104" r="38" fill="#f4e3b8"/><path fill="#d9be8c" d="M118 150q1.3 6.7 8 8-6.7 1.3-8 8-1.3-6.7-8-8 6.7-1.3 8-8m422 86q1 5 6 6-5 1-6 6-1-5-6-6 5-1 6-6"/><path fill="url(#a)" d="M100 386c0-22 98-34 220-34s220 12 220 32-100 30-220 30-220-8-220-28"/><ellipse cx="262" cy="366" fill="#3a3024" opacity=".1" rx="84" ry="9"/><ellipse cx="452" cy="372" fill="#3a3024" opacity=".1" rx="70" ry="8"/><g transform="rotate(-8 262 256)"><rect width="20" height="26" x="252" y="124" fill="url(#b)" rx="6"/><rect width="56" height="22" x="234" y="106" fill="url(#c)" rx="10"/><path stroke="#fff" stroke-linecap="round" stroke-width="3" d="M244 114h18" opacity=".5"/><g transform="rotate(44 262 256)"><rect width="12" height="18" x="256" y="136" fill="url(#b)" rx="4"/><rect width="32" height="15" x="246" y="124" fill="url(#c)" rx="7"/></g><circle cx="262" cy="256" r="108" fill="url(#d)"/><circle cx="262" cy="256" r="96" fill="url(#e)"/><circle cx="262" cy="256" r="84" fill="#fffdf9"/><circle cx="262" cy="256" r="66" stroke="#efe4d0" stroke-width="14"/><circle cx="262" cy="256" r="66" stroke="url(#c)" stroke-dasharray="290 415" stroke-linecap="round" stroke-width="14" transform="rotate(-90 262 256)"/><path stroke="#d9be8c" stroke-linecap="round" stroke-width="3" d="M262 198v10m58 48h-10m-48 58v-10m-58-48h10"/><path stroke="#7a5a2b" stroke-linecap="round" stroke-width="5" d="m262 256-44 16"/><circle cx="262" cy="256" r="9" fill="#7a5a2b"/><circle cx="262" cy="256" r="3.5" fill="#d9be8c"/><path stroke="#fff" stroke-linecap="round" stroke-width="6" d="M186 206a92 92 0 0 1 52-40" opacity=".6"/></g><path fill="url(#f)" stroke="#a9cbcf" stroke-width="2" d="M414 198h76c0 38-28 56-33 76 5 20 33 38 33 76h-76c0-38 28-56 33-76-5-20-33-38-33-76Z"/><path fill="url(#g)" d="M431 246q21-4 42 0c-7 10-15 18-21 28-6-10-14-18-21-28"/><path stroke="#d9be8c" stroke-linecap="round" stroke-width="3" d="M452 276v58"/><path fill="url(#g)" d="M417 348c7-22 23-34 35-36 12 2 28 14 35 36Z"/><path stroke="#fff" stroke-linecap="round" stroke-width="4" d="M424 208c0 18 6 28 14 38" opacity=".8"/><rect width="10" height="156" x="398" y="196" fill="url(#b)" rx="5"/><rect width="10" height="156" x="496" y="196" fill="url(#b)" rx="5"/><rect width="128" height="20" x="388" y="180" fill="url(#c)" rx="9"/><rect width="128" height="20" x="388" y="348" fill="url(#c)" rx="9"/><path stroke="#fff" stroke-linecap="round" stroke-width="3" d="M398 186h40m-40 168h40" opacity=".5"/><path fill="#5e8c6a" d="M146 380c-8-12-6-28 4-38 4 14 3 26-4 38"/><path fill="#9dbea6" d="M150 381c2-14 12-24 26-26-4 12-12 21-26 26"/><path fill="#3f6b4e" d="M143 381c-10-6-16-16-16-28 10 6 16 16 16 28"/><ellipse cx="372" cy="392" fill="#d9be8c" rx="11" ry="5.5"/><ellipse cx="388" cy="396" fill="#c9a45c" opacity=".7" rx="6" ry="3.5"/><path fill="#d9be8c" d="M366 112q.9 5.1 6 6-5.1.9-6 6-.9-5.1-6-6 5.1-.9 6-6"/></svg>