<svg xmlns="http://www.w3.org/2000/svg" fill="none" viewBox="0 0 800 600"><defs><linearGradient id="b" x1="0" x2="0" y1="0" y2="1"><stop offset="0" stop-color="#cfe3e4"/><stop offset="1" stop-color="#a9cbcf"/></linearGradient><linearGradient id="d" x1="0" x2="1" y1="0" y2="1"><stop offset="0" stop-color="#efe4d0"/><stop offset="1" stop-color="#e3d3b5"/></linearGradient><linearGradient id="c" x1="0" x2="0" y1="0" y2="1"><stop offset="0" stop-color="#e3d3b5"/><stop offset="1" stop-color="#d9be8c"/></linearGradient><linearGradient id="e" x1="0" x2="1" y1="0" y2="1"><stop offset="0" stop-color="#5e8c6a"/><stop offset="1" stop-color="#3f6b4e"/></linearGradient><linearGradient id="f" x1="0" x2="1" y1="0" y2="1"><stop offset="0" stop-color="#c9a45c"/><stop offset="1" stop-color="#a67f38"/></linearGradient><linearGradient id="i" x1="0" x2="1" y1="0" y2="0"><stop offset="0" stop-color="#a67f38"/><stop offset="1" stop-color="#7a5a2b"/></linearGradient><linearGradient id="g" x1="0" x2="1" y1="0" y2="1"><stop offset="0" stop-color="#9dbea6"/><stop offset="1" stop-color="#5e8c6a"/></linearGradient><linearGradient id="h" x1="0" x2="0" y1="0" y2="1"><stop offset="0" stop-color="#d9be8c"/><stop offset="1" stop-color="#c9a45c"/></linearGradient><filter id="a" width="200%" height="200%" x="-50%" y="-50%"><feGaussianBlur stdDeviation="18"/></filter></defs><circle cx="400" cy="290" r="250" fill="#f7f0e3"/><circle cx="400" cy="166" r="56" fill="#f4e3b8" filter="url(#a)"/><path fill="url(#b)" d="M84 482c0-42 142-70 316-70s316 28 316 70-142 72-316 72-316-30-316-72"/><path stroke="#fff" stroke-linecap="round" stroke-width="2.5" d="M140 516q18-7.5 36 0m444-2q18-7.5 36 0m6-34q15-6 30 0" opacity=".8"/><ellipse cx="404" cy="486" fill="#3a3024" opacity=".1" rx="252" ry="30"/><path fill="url(#c)" d="M150 464c0-40 114-66 254-66s254 26 254 66c0 32-114 50-254 50s-254-18-254-50"/><ellipse cx="404" cy="452" fill="url(#d)" rx="254" ry="56"/><path stroke="#fff" stroke-linecap="round" stroke-width="3" d="M160 470c34 26 130 38 244 38s212-12 246-38" opacity=".8"/><path fill="url(#e)" d="M200 450c0-74 44-138 96-184 30-26 52-54 66-72 6-8 12-12 22-12h36c10 0 16 4 22 12 14 18 36 46 66 72 52 46 98 110 98 184 0 12-16 16-28 12-14 10-42 10-56 2-22 10-62 12-82 4-26 10-60 10-84 0-24 8-58 6-74-4-16 6-42 6-52-2-18 2-30-2-30-12"/><path fill="#9dbea6" d="M200 450c0-74 44-138 96-184 30-26 52-54 66-72 6-8 12-12 22-12h8c-32 58-72 118-92 178-12 36-12 62-6 90-40 8-70 6-94 0" opacity=".5"/><circle cx="294" cy="270" r="14" fill="#5e8c6a"/><circle cx="514" cy="272" r="13" fill="#3f6b4e"/><circle cx="528" cy="284" r="9" fill="#3f6b4e"/><circle cx="212" cy="448" r="20" fill="#5e8c6a"/><circle cx="234" cy="458" r="13" fill="#3f6b4e"/><circle cx="596" cy="450" r="16" fill="#3f6b4e"/><g stroke-linecap="round" stroke-linejoin="round"><path stroke="#d9be8c" stroke-width="26" d="M262 470c78-14 158-26 208-50 34-16 18-38-26-46-54-10-120-10-128-30-10-22 46-30 104-40 42-8 52-24 22-36s-66-18-58-40c5-14 14-24 20-30"/><path stroke="#f7f0e3" stroke-dasharray="12 5" stroke-linecap="butt" stroke-width="20" d="M262 466c78-14 158-26 208-50 34-16 18-38-26-46-54-10-120-10-128-30-10-22 46-30 104-40 42-8 52-24 22-36s-66-18-58-40c5-14 14-24 20-30"/></g><ellipse cx="400" cy="184" fill="#3a3024" opacity=".1" rx="30" ry="4"/><path stroke="#7a5a2b" stroke-linecap="round" stroke-width="3.5" d="M430 182v-78"/><circle cx="430" cy="102" r="4" fill="#c9a45c"/><path fill="#e39b7b" d="m432 108 44 12-44 14z"/><path stroke="#a67f38" stroke-linecap="round" stroke-width="4" d="M374 138c-14 0-16 22 2 24m30-24c14 0 16 22-2 24"/><path fill="url(#f)" d="M372 132h36v12c0 14-8 24-18 24s-18-10-18-24z"/><path stroke="#f4e3b8" stroke-linecap="round" stroke-width="3" d="M380 138v8c0 6 3 11 7 13"/><path fill="#a67f38" d="M386 166h8v8h-8z"/><rect width="28" height="10" x="376" y="172" fill="url(#f)" rx="3"/><ellipse cx="380" cy="358" fill="#3a3024" opacity=".1" rx="22" ry="4"/><rect width="10" height="32" x="368" y="326" fill="#7a5a2b" rx="5"/><rect width="10" height="28" x="382" y="322" fill="#7a5a2b" rx="5" transform="rotate(-14 387 336)"/><path stroke="#9dbea6" stroke-linecap="round" stroke-width="9" d="M366 300c-4 12-6 22-6 32"/><circle cx="360" cy="334" r="4.5" fill="#c99a74"/><path stroke="#9dbea6" stroke-linecap="round" stroke-width="9" d="m394 298 14-26"/><circle cx="409" cy="268" r="5" fill="#c99a74"/><rect width="36" height="42" x="362" y="290" fill="url(#g)" rx="13"/><rect width="26" height="28" x="367" y="296" fill="url(#h)" rx="9"/><path stroke="#a67f38" stroke-linecap="round" stroke-width="2" d="M371 306h18"/><rect width="10" height="10" x="375" y="280" fill="#c99a74" rx="4"/><circle cx="380" cy="272" r="14" fill="#3a3024"/><path stroke="#5a4632" stroke-linecap="round" stroke-width="3" d="M372 264c3-4 8-6 12-5"/><g transform="matrix(.72 0 0 .72 600 460)"><path fill="url(#i)" d="M-9 0c1-70 11-140 31-205l14 4C18-140 10-70 11 0z"/><path stroke="#7a5a2b" stroke-linecap="round" stroke-width="2.5" d="M-7-40q9 5 18 0M-5-82q9 5 18 0M0-124q9 5 17 0m-9-40q8 5 16 0" opacity=".6"/><path fill="#3f6b4e" d="M29-207c-19-38-59-55-89-43 35 6 65 22 85 50zm0 0c21-43 66-55 91-38-32 3-65 19-87 45z"/><path fill="url(#e)" d="M29-205c-29-20-79-17-111 27 34-22 72-24 111-20zm0 0c31-23 81-17 111 25-35-22-72-24-111-18z"/><path fill="#5e8c6a" d="M29-203c-24 3-54 23-64 53 20-25 43-40 64-48zm0 0c26 5 56 25 66 58-20-27-43-43-66-53z"/><circle cx="22" cy="-196" r="7" fill="#7a5a2b"/><circle cx="36" cy="-194" r="7" fill="#a67f38"/></g><path fill="#c9a45c" d="m300 128 4 10 10 4-10 4-4 10-4-10-10-4 10-4z"/><path fill="#d9be8c" d="m512 150 3 8 8 3-8 3-3 8-3-8-8-3 8-3zM346 76l2.5 6 6 2.5-6 2.5-2.5 6-2.5-6-6-2.5 6-2.5z"/><path fill="#c9a45c" d="m488 70 3 7 7 3-7 3-3 7-3-7-7-3 7-3z"/><path fill="#d9be8c" d="m236 214 2.5 6 6 2.5-6 2.5-2.5 6-2.5-6-6-2.5 6-2.5z"/></svg>