<svg xmlns="http://www.w3.org/2000/svg" viewBox="0 -4.93 341.32 104.93" role="img" aria-label="جزيرة"><g transform="translate(231.51 -15.42) scale(1.8691600000000002)"><path d="M49.5 13 L27 16.5 C17 22 11 30.5 11 40 C11 50 19.5 57 31 57 C41.5 57 49 52.5 53 45.5" fill="none" stroke="#F7F1E6" stroke-width="9.5" stroke-linecap="round" stroke-linejoin="round"/><circle cx="31" cy="38" r="5.6" fill="#C9A45C"/></g><g transform="translate(-3.99 70)"><path d="M23.12 -53.18L31.67 -53.18Q50.71 -37.17 50.71 -21.58Q50.71 -15.25 47.78 -10.37Q44.85 -5.5 39.62 -2.75Q34.39 0 27.35 0Q20.41 0 15.13 -2.73Q9.85 -5.45 6.92 -10.34Q3.99 -15.24 3.99 -21.5Q3.99 -37.08 23.12 -53.18ZM26.76 -39.38Q21.68 -34.81 19.33 -30.95Q16.98 -27.08 16.98 -23.71Q16.98 -21.37 18.24 -19.65Q19.49 -17.94 21.81 -16.97Q24.13 -16.01 27.35 -16.01Q30.59 -16.01 32.9 -16.97Q35.21 -17.93 36.46 -19.7Q37.71 -21.48 37.71 -23.84Q37.71 -27.09 35.38 -30.97Q33.06 -34.86 28.2 -39.38L26.76 -39.38ZM34.79 -62Q31.96 -62 30.13 -63.8Q28.3 -65.61 28.3 -68.4Q28.3 -71.29 30.13 -73.11Q31.96 -74.93 34.79 -74.93Q37.62 -74.93 39.45 -73.11Q41.28 -71.29 41.28 -68.4Q41.28 -65.61 39.45 -63.8Q37.62 -62 34.79 -62ZM19.95 -62Q17.13 -62 15.29 -63.8Q13.46 -65.61 13.46 -68.4Q13.46 -71.29 15.29 -73.11Q17.13 -74.93 19.95 -74.93Q22.78 -74.93 24.62 -73.11Q26.45 -71.29 26.45 -68.4Q26.45 -65.61 24.62 -63.8Q22.78 -62 19.95 -62ZM77.18 0L77.18 -16.01L90.93 -16.01L90.93 0L77.18 0ZM54.72 10.2Q59.3 10.08 61.88 9.16Q64.47 8.24 65.53 6.4Q66.6 4.56 66.6 1.83L66.6 -46.21L80.42 -46.21L80.42 1.83Q80.42 8.86 77.59 14.04Q74.76 19.22 69.62 22.15Q64.47 25.08 57.3 25.43L54.72 10.2ZM90.93 0L90.93 -16.01Q91.76 -16.01 92.24 -13.84Q92.73 -11.67 92.73 -8.1Q92.73 -4.42 92.24 -2.21Q91.76 0 90.93 0ZM104.48 -46.21L118.3 -46.21L118.3 0L90.9 0L90.9 -16.01L104.48 -16.01L104.48 -46.21ZM90.9 0Q90.06 0 89.58 -2.2Q89.1 -4.41 89.1 -8.13Q89.1 -11.71 89.58 -13.86Q90.06 -16.01 90.9 -16.01L90.9 0ZM113.95 21.75Q111.15 21.75 109.32 19.93Q107.49 18.1 107.49 15.34Q107.49 12.5 109.32 10.66Q111.15 8.82 113.95 8.82Q116.76 8.82 118.61 10.66Q120.47 12.5 120.47 15.34Q120.47 18.1 118.61 19.93Q116.76 21.75 113.95 21.75ZM99.12 21.75Q96.31 21.75 94.48 19.93Q92.65 18.1 92.65 15.34Q92.65 12.5 94.48 10.66Q96.31 8.82 99.12 8.82Q101.92 8.82 103.78 10.66Q105.63 12.5 105.63 15.34Q105.63 18.1 103.78 19.93Q101.92 21.75 99.12 21.75ZM150.53 0L150.53 -16.01L164.28 -16.01L164.28 0L150.53 0ZM128.07 10.2Q132.65 10.08 135.23 9.16Q137.82 8.24 138.88 6.4Q139.95 4.56 139.95 1.83L139.95 -46.21L153.77 -46.21L153.77 1.83Q153.77 8.86 150.94 14.04Q148.11 19.22 142.97 22.15Q137.82 25.08 130.65 25.43L128.07 10.2ZM164.28 0L164.28 -16.01Q165.11 -16.01 165.59 -13.84Q166.08 -11.67 166.08 -8.1Q166.08 -4.42 165.59 -2.21Q165.11 0 164.28 0ZM146.91 -56.67Q143.46 -56.67 141.22 -58.89Q138.97 -61.11 138.97 -64.56Q138.97 -68.04 141.22 -70.26Q143.46 -72.49 146.91 -72.49Q150.39 -72.49 152.61 -70.26Q154.84 -68.04 154.84 -64.56Q154.84 -61.11 152.61 -58.89Q150.39 -56.67 146.91 -56.67ZM204.09 -8.74L204.09 -24.04Q204.09 -27.26 202.21 -29.74Q200.33 -32.23 196.73 -33.65Q193.13 -35.07 188 -35.07Q184.24 -35.07 180.46 -34.24Q176.67 -33.4 173.87 -32.17L167.91 -45.4Q172.48 -48.24 177.63 -49.66Q182.79 -51.08 188.07 -51.08Q194.13 -51.08 199.5 -49.28Q204.88 -47.47 209.03 -43.97Q213.17 -40.47 215.54 -35.45Q217.92 -30.43 217.92 -24.04L217.92 -8.74L204.09 -8.74ZM164.25 0L164.25 -16.01L221.31 -16.01L218.4 0L164.25 0ZM164.25 0Q163.41 0 162.93 -2.21Q162.45 -4.42 162.45 -8.14Q162.45 -11.71 162.93 -13.86Q163.41 -16.01 164.25 -16.01L164.25 0Z" fill="#F7F1E6"/><path d="M191.07 26.33Q187.62 26.33 185.38 24.11Q183.14 21.9 183.14 18.45Q183.14 14.97 185.38 12.74Q187.62 10.52 191.07 10.52Q194.55 10.52 196.78 12.74Q199 14.97 199 18.45Q199 21.9 196.78 24.11Q194.55 26.33 191.07 26.33Z" fill="#C9A45C"/></g></svg>
